HIERARCHY
ROOT Hips
{
    OFFSET   0.000000   0.000000   0.000000
    CHANNELS 6 Xposition Yposition Zposition Zrotation Xrotation Yrotation
    JOINT Chest
    {
        OFFSET   0.000000   8.007240   0.000000
        CHANNELS 3 Zrotation Xrotation Yrotation
        JOINT Chest2
        {
            OFFSET   0.000000  22.077100   0.000000
            CHANNELS 3 Zrotation Xrotation Yrotation
            JOINT Neck
            {
                OFFSET   0.000000  23.254800   0.000000
                CHANNELS 3 Zrotation Xrotation Yrotation
                JOINT Head
                {
                    OFFSET   0.000000  14.370000   1.956600
                    CHANNELS 3 Zrotation Xrotation Yrotation
                    End Site
                    {
                        OFFSET   0.000000  19.566000   0.000000
                    }
                }
            }
            JOINT LeftCollar
            {
                OFFSET   3.911900  19.017000  -0.467064
                CHANNELS 3 Zrotation Xrotation Yrotation
                JOINT LeftShoulder
                {
                    OFFSET  10.383700   0.000000   0.000000
                    CHANNELS 3 Zrotation Xrotation Yrotation
                    JOINT LeftElbow
                    {
                        OFFSET  26.662100   0.001476   0.000517
                        CHANNELS 3 Zrotation Xrotation Yrotation
                        JOINT LeftWrist
                        {
                            OFFSET  28.869000  -0.000025  -0.000106
                            CHANNELS 3 Zrotation Xrotation Yrotation
                            JOINT LeftFinger0
                            {
                                OFFSET   2.044660  -2.323460   3.252850
                                CHANNELS 3 Zrotation Xrotation Yrotation
                                JOINT LeftFinger01
                                {
                                    OFFSET   3.088130   0.000000   0.000000
                                    CHANNELS 3 Zrotation Xrotation Yrotation
                                    JOINT LeftFinger02
                                    {
                                        OFFSET   2.639460   0.000000   0.000000
                                        CHANNELS 3 Zrotation Xrotation Yrotation
                                        End Site
                                        {
                                            OFFSET   2.582190   0.000000   0.000000
                                        }
                                    }
                                }
                            }
                            JOINT LeftFinger1
                            {
                                OFFSET   8.364480   0.000000   3.252850
                                CHANNELS 3 Zrotation Xrotation Yrotation
                                JOINT LeftFinger11
                                {
                                    OFFSET   4.646930   0.000000   0.000000
                                    CHANNELS 3 Zrotation Xrotation Yrotation
                                    JOINT LeftFinger12
                                    {
                                        OFFSET   2.323460   0.000000   0.000000
                                        CHANNELS 3 Zrotation Xrotation Yrotation
                                        End Site
                                        {
                                            OFFSET   2.273050   0.000000   0.000000
                                        }
                                    }
                                }
                            }
                            JOINT LeftFinger2
                            {
                                OFFSET   8.364490   0.000015   1.078090
                                CHANNELS 3 Zrotation Xrotation Yrotation
                                JOINT LeftFinger21
                                {
                                    OFFSET   5.111620   0.000000   0.000000
                                    CHANNELS 3 Zrotation Xrotation Yrotation
                                    JOINT LeftFinger22
                                    {
                                        OFFSET   2.788160   0.000016   0.000000
                                        CHANNELS 3 Zrotation Xrotation Yrotation
                                        End Site
                                        {
                                            OFFSET   2.727660   0.000000   0.000000
                                        }
                                    }
                                }
                            }
                            JOINT LeftFinger3
                            {
                                OFFSET   7.899780   0.000017  -1.078090
                                CHANNELS 3 Zrotation Xrotation Yrotation
                                JOINT LeftFinger31
                                {
                                    OFFSET   4.646930   0.000000   0.000000
                                    CHANNELS 3 Zrotation Xrotation Yrotation
                                    JOINT LeftFinger32
                                    {
                                        OFFSET   2.323470   0.000000   0.000000
                                        CHANNELS 3 Zrotation Xrotation Yrotation
                                        End Site
                                        {
                                            OFFSET   2.273050   0.000000   0.000000
                                        }
                                    }
                                }
                            }
                            JOINT LeftFinger4
                            {
                                OFFSET   7.435090   0.000000  -3.252850
                                CHANNELS 3 Zrotation Xrotation Yrotation
                                JOINT LeftFinger41
                                {
                                    OFFSET   3.717550   0.000000   0.000000
                                    CHANNELS 3 Zrotation Xrotation Yrotation
                                    JOINT LeftFinger42
                                    {
                                        OFFSET   1.858770   0.000000   0.000000
                                        CHANNELS 3 Zrotation Xrotation Yrotation
                                        End Site
                                        {
                                            OFFSET   1.818440   0.000000   0.000000
                                        }
                                    }
                                }
                            }
                        }
                    }
                }
            }
            JOINT RightCollar
            {
                OFFSET  -3.911900  19.017000  -0.467063
                CHANNELS 3 Zrotation Xrotation Yrotation
                JOINT RightShoulder
                {
                    OFFSET -10.383700   0.000019   0.000000
                    CHANNELS 3 Zrotation Xrotation Yrotation
                    JOINT RightElbow
                    {
                        OFFSET -26.662100   0.001175   0.000102
                        CHANNELS 3 Zrotation Xrotation Yrotation
                        JOINT RightWrist
                        {
                            OFFSET -28.869000   0.000016  -0.000079
                            CHANNELS 3 Zrotation Xrotation Yrotation
                            JOINT RightFinger0
                            {
                                OFFSET  -2.044660  -2.323490   3.252850
                                CHANNELS 3 Zrotation Xrotation Yrotation
                                JOINT RightFinger01
                                {
                                    OFFSET  -3.088140   0.000000   0.000000
                                    CHANNELS 3 Zrotation Xrotation Yrotation
                                    JOINT RightFinger02
                                    {
                                        OFFSET  -2.639460   0.000000   0.000000
                                        CHANNELS 3 Zrotation Xrotation Yrotation
                                        End Site
                                        {
                                            OFFSET  -2.582190   0.000000   0.000000
                                        }
                                    }
                                }
                            }
                            JOINT RightFinger1
                            {
                                OFFSET  -8.364480   0.000000   3.252850
                                CHANNELS 3 Zrotation Xrotation Yrotation
                                JOINT RightFinger11
                                {
                                    OFFSET  -4.646930   0.000000   0.000000
                                    CHANNELS 3 Zrotation Xrotation Yrotation
                                    JOINT RightFinger12
                                    {
                                        OFFSET  -2.323470   0.000000   0.000000
                                        CHANNELS 3 Zrotation Xrotation Yrotation
                                        End Site
                                        {
                                            OFFSET  -2.273050   0.000000   0.000000
                                        }
                                    }
                                }
                            }
                            JOINT RightFinger2
                            {
                                OFFSET  -8.364480   0.000000   1.078090
                                CHANNELS 3 Zrotation Xrotation Yrotation
                                JOINT RightFinger21
                                {
                                    OFFSET  -5.111620   0.000000   0.000000
                                    CHANNELS 3 Zrotation Xrotation Yrotation
                                    JOINT RightFinger22
                                    {
                                        OFFSET  -2.788160   0.000000   0.000000
                                        CHANNELS 3 Zrotation Xrotation Yrotation
                                        End Site
                                        {
                                            OFFSET  -2.727660   0.000000   0.000000
                                        }
                                    }
                                }
                            }
                            JOINT RightFinger3
                            {
                                OFFSET  -7.899780   0.000000  -1.078090
                                CHANNELS 3 Zrotation Xrotation Yrotation
                                JOINT RightFinger31
                                {
                                    OFFSET  -4.646930   0.000000   0.000000
                                    CHANNELS 3 Zrotation Xrotation Yrotation
                                    JOINT RightFinger32
                                    {
                                        OFFSET  -2.323470   0.000000   0.000000
                                        CHANNELS 3 Zrotation Xrotation Yrotation
                                        End Site
                                        {
                                            OFFSET  -2.273050   0.000000   0.000000
                                        }
                                    }
                                }
                            }
                            JOINT RightFinger4
                            {
                                OFFSET  -7.435090   0.000000  -3.252850
                                CHANNELS 3 Zrotation Xrotation Yrotation
                                JOINT RightFinger41
                                {
                                    OFFSET  -3.717550   0.000000   0.000000
                                    CHANNELS 3 Zrotation Xrotation Yrotation
                                    JOINT RightFinger42
                                    {
                                        OFFSET  -1.858770   0.000000   0.000000
                                        CHANNELS 3 Zrotation Xrotation Yrotation
                                        End Site
                                        {
                                            OFFSET  -1.818440   0.000000   0.000000
                                        }
                                    }
                                }
                            }
                        }
                    }
                }
            }
        }
    }
    JOINT LeftHip
    {
        OFFSET   9.783040   0.000000   0.000000
        CHANNELS 3 Zrotation Xrotation Yrotation
        JOINT LeftKnee
        {
            OFFSET   0.000032 -41.789100  -0.002222
            CHANNELS 3 Zrotation Xrotation Yrotation
            JOINT LeftAnkle
            {
                OFFSET   0.000087 -41.133200  -0.000135
                CHANNELS 3 Zrotation Xrotation Yrotation
                JOINT LeftToe
                {
                    OFFSET   0.000000  -6.358960  14.674500
                    CHANNELS 3 Zrotation Xrotation Yrotation
                    End Site
                    {
                        OFFSET   0.000000   0.000000   3.913200
                    }
                }
            }
        }
    }
    JOINT RightHip
    {
        OFFSET  -9.783040   0.000000   0.000000
        CHANNELS 3 Zrotation Xrotation Yrotation
        JOINT RightKnee
        {
            OFFSET   0.000047 -41.789100  -0.000896
            CHANNELS 3 Zrotation Xrotation Yrotation
            JOINT RightAnkle
            {
                OFFSET  -0.000117 -41.133300  -0.000248
                CHANNELS 3 Zrotation Xrotation Yrotation
                JOINT RightToe
                {
                    OFFSET   0.000000  -6.358970  14.674500
                    CHANNELS 3 Zrotation Xrotation Yrotation
                    End Site
                    {
                        OFFSET   0.000000   0.000000   3.913200
                    }
                }
            }
        }
    }
}
MOTION
Frames: 6
Frame Time:   0.016667
  4.049730  89.107200   0.494270  -0.288955 -18.337100  11.782700   1.268170  11.202700   3.614180   1.852220  22.462400   7.182830   1.514690  -2.838800   0.074579   2.505750  -5.744180  -6.038140 -10.219000  -4.231110  -0.315808 -68.245600  23.179700 -12.274200  -1.603490  -5.880930  -7.321940   6.611980  -3.929700  11.852500  42.171800  28.403700 -66.275600 -18.481500   0.006529   0.002233  -4.240780   0.000423   0.005774 -32.511900   6.342750  -9.833620 -27.047500   0.003581   0.008079 -18.933300  -0.001455   0.008929 -28.527000   2.778260  -5.095780 -38.166600   0.002770  -0.000120 -25.418900   0.000474   0.002259 -28.637700   0.633127  -1.159280 -38.058600  -0.000332  -0.000808 -25.347000  -0.000515  -0.000783 -37.273400  -0.321723   0.422596 -55.912000  -0.001641   0.003693 -37.237400  -0.007804   0.003881   5.496710  -6.792020  15.269700  54.008200   0.769339  66.755500 -17.868300 -21.751000  41.078300   8.428650 -41.909100  34.062900 -79.128300  46.326600  97.780600 -10.169400  -0.010244  -0.001762 -10.084700   0.002109   0.000000  15.104100   6.865240  23.863400  13.545800   0.008778   0.004307   9.482080   0.012602  -0.001674 -13.612300  -4.885700  19.444700   0.006088   0.000638   0.007224   0.004063   0.000227  -0.002544  35.654000  -5.272840  -7.308280  53.855100  -0.001169  -0.001715  35.896100   0.000396  -0.003242  58.153000  -9.117920  -5.621670  87.902500  -0.001721  -0.001137  58.543100   0.001722  -0.000636   2.188930  21.087700   2.088820  -0.088150   0.364996   1.950530  -1.864720  -1.922360  -6.738300   0.000000   0.000000  -0.000000   1.693290  11.439100  -3.907700   0.204942  17.284100  -9.570240  -2.628160  -8.989720  -8.525470   0.000000   0.000000   0.000000
  4.087540  89.117100   0.493418  -0.378073 -18.260900  11.639900   1.266610  11.125900   3.629460   1.850160  22.308900   7.214510   1.492210  -2.850890   0.074114   2.468710  -5.768990  -5.976830 -10.205700  -4.202410  -0.340157 -68.301700  22.900600 -11.969500  -1.590150  -5.825500  -7.267750   6.542000  -3.879990  11.865200  42.168000  28.444400 -66.354500 -18.434300   0.006527   0.002233  -4.217160   0.000412   0.005893 -32.490400   6.334550  -9.829270 -27.030700   0.003556   0.004340 -18.920300  -0.002388   0.004750 -28.523200   2.819970  -5.172530 -38.169700   0.002722  -0.000122 -25.421000   0.000522   0.002830 -28.632100   0.642038  -1.175870 -37.974400  -0.000334  -0.001145 -25.290900  -0.000506  -0.000828 -37.228300  -0.310012   0.407868 -55.844200  -0.001640   0.003754 -37.192200  -0.007765   0.003956   5.521900  -6.789820  15.236500  53.658000   0.816495  66.605100 -17.894400 -21.086300  40.553700   7.327580 -42.184000  33.337500 -78.242300  46.215200  96.879100  -8.795860  -0.008908  -0.001250  -9.397930   0.002221   0.000000  15.319600   6.991280  23.861900  13.730000   0.014368   0.004304   9.611050   0.012182  -0.001792 -12.262300  -4.399470  19.559000   0.006400   0.000831   0.007666   0.004252   0.000382  -0.002406  36.108200  -5.299370  -7.230360  54.033100  -0.001074  -0.001183  36.117000   0.000610  -0.004675  58.148100  -9.119200  -5.623680  87.895600  -0.001865  -0.000789  58.538500   0.001766  -0.000640   2.209230  21.032700   2.059470  -0.127313   0.357721   2.059920  -1.874400  -1.937620  -6.702290   0.000000   0.000000   0.000000   1.711950  11.396900  -3.907550   0.170858  17.188100  -9.538050  -2.606530  -8.933640  -8.420590  -0.000000   0.000000  -0.000000
  4.119770  89.128100   0.491748  -0.477963 -18.182900  11.469600   1.267290  11.052400   3.635810   1.855400  22.162100   7.225350   1.467890  -2.868570   0.073474   2.428640  -5.805250  -5.924960 -10.193400  -4.177890  -0.361909 -68.340100  22.685200 -11.697800  -1.578940  -5.786810  -7.211670   6.475580  -3.822060  11.871700  42.145600  28.485700 -66.434400 -18.365700   0.006523   0.002228  -4.182870   0.000400   0.006013 -32.468300   6.326360  -9.824920 -27.010400   0.003478   0.003295 -18.907300  -0.003254   0.002270 -28.517800   2.884500  -5.291340 -38.172800   0.002681  -0.000124 -25.423000   0.000566   0.003448 -28.626700   0.648060  -1.187180 -37.892500  -0.000336  -0.001246 -25.236400  -0.000505  -0.000836 -37.183100  -0.298251   0.393075 -55.776200  -0.001639   0.003819 -37.146900  -0.007726   0.004031   5.538740  -6.768270  15.196900  53.315300   0.929941  66.414200 -17.936000 -20.412000  40.083400   6.334540 -42.461400  32.584100 -77.856400  46.183000  96.522400  -7.367350  -0.006548  -0.000748  -8.683690   0.002333   0.000000  15.761200   7.168700  23.813600  14.132900   0.017881   0.004281   9.893040   0.010597  -0.001909 -10.373100  -3.726890  19.689300   0.006681   0.001037   0.008102   0.004423   0.000552  -0.002271  36.759600  -5.344880  -7.127290  54.148100  -0.000980  -0.000660  36.364400   0.000803  -0.006263  58.143200  -9.120480  -5.625690  87.888700  -0.002008  -0.000470  58.533900   0.001817  -0.000645   2.232270  20.971600   2.037550  -0.160263   0.350446   2.172440  -1.877840  -1.961350  -6.649920   0.000000   0.000000   0.000000   1.737950  11.351800  -3.909950   0.129481  17.078400  -9.489840  -2.588500  -8.865440  -8.296830  -0.000000   0.000000   0.000000
  4.147880  89.139800   0.488547  -0.583496 -18.109200  11.275900   1.268830  10.985200   3.630440   1.865170  22.028000   7.211950   1.440390  -2.894540   0.072501   2.383370  -5.858380  -5.870610 -10.181000  -4.152260  -0.381783 -68.367600  22.509300 -11.464600  -1.566710  -5.738050  -7.155530   6.430700  -3.765530  11.895300  42.154400  28.546500 -66.507200 -18.333700   0.006521   0.002206  -4.166870   0.000383   0.006119 -32.464400   6.335150  -9.840180 -27.006400   0.003337   0.007312 -18.908100  -0.004180   0.001544 -28.517400   2.925010  -5.365940 -38.171800   0.002649  -0.000123 -25.422400   0.000606   0.004100 -28.623100   0.665772  -1.219800 -37.840500  -0.000335  -0.001414 -25.201700  -0.000511  -0.000840 -37.152800  -0.290363   0.383145 -55.730600  -0.001639   0.003887 -37.116500  -0.007685   0.004107   5.532840  -6.709140  15.131500  53.010400   1.101950  66.218100 -17.956900 -19.896100  39.713100   5.393210 -42.276900  31.602000 -78.160600  46.183900  96.685600  -6.251030  -0.003791  -0.000329  -8.125520   0.002439   0.000000  16.742200   7.478050  23.424600  14.970800   0.012593   0.003473  10.479500   0.006411  -0.002027  -8.133950  -2.930510  19.802600   0.006918   0.001265   0.008539   0.004587   0.000720  -0.002152  37.761200  -5.424530  -6.976390  54.227600  -0.000873  -0.000147  36.691800   0.001004  -0.007348  58.170400  -9.112500  -5.614610  87.927400  -0.002149  -0.000173  58.559600   0.001870  -0.000650   2.253560  20.888300   2.014170  -0.183793   0.394714   2.278560  -1.869360  -2.017670  -6.568250  -0.000000   0.000000  -0.000000   1.765610  11.307100  -3.924410   0.085272  16.956600  -9.438150  -2.576220  -8.783170  -8.144730  -0.000000   0.000000   0.000000
  4.169720  89.151600   0.482884  -0.695677 -18.034700  11.059500   1.272810  10.921400   3.618930   1.878490  21.900600   7.187690   1.410690  -2.925690   0.071402   2.334540  -5.921990  -5.809480 -10.167500  -4.126240  -0.402231 -68.391800  22.359300 -11.262100  -1.554210  -5.686400  -7.098280   6.395320  -3.694340  11.924400  42.217100  28.665500 -66.635600 -18.310600   0.006518   0.002189  -4.155300   0.000368   0.006223 -32.458100   6.352390  -9.868170 -27.005800   0.003148   0.011329 -18.909800  -0.005107   0.001318 -28.515000   2.960900  -5.432260 -38.164900   0.002629  -0.000121 -25.417800   0.000641   0.004778 -28.620200   0.686883  -1.258610 -37.804400  -0.000334  -0.001549 -25.177700  -0.000526  -0.000841 -37.132300  -0.285055   0.376457 -55.699900  -0.001639   0.003958 -37.096100  -0.007644   0.004182   5.523920  -6.642320  15.058900  52.677000   1.316380  66.005500 -17.990300 -19.433300  39.335800   4.371400 -41.794700  30.552500 -78.593600  46.184400  96.848800  -5.540600  -0.002057  -0.000116  -7.770300   0.002548   0.000000  17.737400   7.779730  22.933000  15.805400   0.004624   0.002359  11.063800   0.003276  -0.002145  -6.110730  -2.210550  19.893600   0.007117   0.001509   0.008967   0.004730   0.000896  -0.002040  38.878300  -5.513540  -6.810370  54.284000  -0.000767   0.000359  37.037300   0.001115  -0.008327  58.197600  -9.104510  -5.603540  87.966000  -0.002281   0.000107  58.585300   0.001926  -0.000655   2.271710  20.805900   2.001290  -0.200620   0.438976   2.379960  -1.853060  -2.072390  -6.465230   0.000000   0.000000   0.000000   1.800920  11.263100  -3.936290   0.037067  16.821800  -9.384090  -2.564960  -8.692660  -7.980620   0.000000   0.000000   0.000000
  4.184040  89.162300   0.472856  -0.811747 -17.957800  10.826100   1.279750  10.860100   3.602370   1.898710  21.778300   7.151500   1.378740  -2.961560   0.070348   2.282160  -5.994970  -5.735030 -10.150900  -4.097940  -0.429914 -68.423900  22.200500 -11.081900  -1.540400  -5.623050  -7.039610   6.360610  -3.560210  11.955600  42.436500  29.014700 -66.959300 -18.282000   0.006514   0.002209  -4.140950   0.000360   0.006334 -32.464300   6.371980  -9.895420 -27.013400   0.002921   0.011198 -18.912700  -0.006022   0.000917 -28.506500   3.004590  -5.513860 -38.093000   0.002621  -0.000121 -25.370000   0.000669   0.005474 -28.617500   0.707223  -1.295940 -37.784600  -0.000333  -0.001655 -25.164500  -0.000546  -0.000829 -37.125600  -0.283300   0.374294 -55.689800  -0.001637   0.004030 -37.089400  -0.007608   0.004256   5.528610  -6.594710  14.991900  52.313200   1.545210  65.789400 -18.058200 -18.993900  38.855700   3.695390 -41.301400  29.712500 -78.937500  46.073900  96.352000  -5.425460  -0.002493  -0.000162  -7.712730   0.002672   0.000000  18.236300   7.930880  22.715200  16.225800  -0.000586   0.001942  11.358000   0.003143  -0.002263  -5.142060  -1.862210  19.930700   0.007283   0.001764   0.009373   0.004846   0.001084  -0.001927  39.939400  -5.592500  -6.652330  54.343600  -0.000676   0.000864  37.362100   0.000586  -0.009408  58.149300  -9.121020  -5.622830  87.896500  -0.002390   0.000379  58.539000   0.001982  -0.000662   2.284010  20.753000   2.004220  -0.209334   0.406196   2.467300  -1.838410  -2.088440  -6.341740   0.000000   0.000000  -0.000000   1.846460  11.226000  -3.919520  -0.013952  16.671200  -9.339640  -2.548980  -8.600370  -7.819310  -0.000000   0.000000   0.000000
